<svg width="47" height="37" viewBox="0 0 47 37" fill="none" xmlns="http://www.w3.org/2000/svg">
<path d="M12.56 31L3.376 20.824V31H0.464V8.696H3.376V19.032L12.592 8.696H16.272L6.16 19.864L16.368 31H12.56ZM30.5003 0.855999L21.7323 36.44H18.8523L27.5883 0.855999H30.5003ZM35.383 11.96H39.063L46.807 19.288L39.063 26.648H35.383L43.127 19.288L35.383 11.96Z" fill="#FAFFFD"/>
<path d="M12.56 31L11.8176 31.67L12.1155 32H12.56V31ZM3.376 20.824L4.11837 20.154L2.376 18.2234V20.824H3.376ZM3.376 31V32H4.376V31H3.376ZM0.464 31H-0.536V32H0.464V31ZM0.464 8.696V7.696H-0.536V8.696H0.464ZM3.376 8.696H4.376V7.696H3.376V8.696ZM3.376 19.032H2.376V21.6561L4.12239 19.6975L3.376 19.032ZM12.592 8.696V7.696H12.1439L11.8456 8.03049L12.592 8.696ZM16.272 8.696L17.0133 9.36719L18.5265 7.696H16.272V8.696ZM6.16 19.864L5.41872 19.1928L4.80723 19.8681L5.42285 20.5397L6.16 19.864ZM16.368 31V32H18.6412L17.1052 30.3243L16.368 31ZM13.3024 30.33L4.11837 20.154L2.63364 21.494L11.8176 31.67L13.3024 30.33ZM2.376 20.824V31H4.376V20.824H2.376ZM3.376 30H0.464V32H3.376V30ZM1.464 31V8.696H-0.536V31H1.464ZM0.464 9.696H3.376V7.696H0.464V9.696ZM2.376 8.696V19.032H4.376V8.696H2.376ZM4.12239 19.6975L13.3384 9.36151L11.8456 8.03049L2.62961 18.3665L4.12239 19.6975ZM12.592 9.696H16.272V7.696H12.592V9.696ZM15.5307 8.02481L5.41872 19.1928L6.90128 20.5352L17.0133 9.36719L15.5307 8.02481ZM5.42285 20.5397L15.6308 31.6757L17.1052 30.3243L6.89715 19.1883L5.42285 20.5397ZM16.368 30H12.56V32H16.368V30ZM30.5003 0.855999L31.4712 1.09525L31.7766 -0.144001H30.5003V0.855999ZM21.7323 36.44V37.44H22.5158L22.7032 36.6792L21.7323 36.44ZM18.8523 36.44L17.8811 36.2016L17.5771 37.44H18.8523V36.44ZM27.5883 0.855999V-0.144001H26.8041L26.6171 0.617575L27.5883 0.855999ZM29.5293 0.616752L20.7613 36.2008L22.7032 36.6792L31.4712 1.09525L29.5293 0.616752ZM21.7323 35.44H18.8523V37.44H21.7323V35.44ZM19.8234 36.6784L28.5594 1.09442L26.6171 0.617575L17.8811 36.2016L19.8234 36.6784ZM27.5883 1.856H30.5003V-0.144001H27.5883V1.856ZM35.383 11.96V10.96H32.8713L34.6957 12.6863L35.383 11.96ZM39.063 11.96L39.7503 11.2337L39.4611 10.96H39.063V11.96ZM46.807 19.288L47.4959 20.0128L48.2602 19.2864L47.4943 18.5617L46.807 19.288ZM39.063 26.648V27.648H39.4624L39.7519 27.3728L39.063 26.648ZM35.383 26.648L34.6941 25.9231L32.8793 27.648H35.383V26.648ZM43.127 19.288L43.8159 20.0128L44.5802 19.2864L43.8143 18.5617L43.127 19.288ZM35.383 12.96H39.063V10.96H35.383V12.96ZM38.3757 12.6863L46.1197 20.0143L47.4943 18.5617L39.7503 11.2337L38.3757 12.6863ZM46.1181 18.5631L38.3741 25.9231L39.7519 27.3728L47.4959 20.0128L46.1181 18.5631ZM39.063 25.648H35.383V27.648H39.063V25.648ZM36.0719 27.3728L43.8159 20.0128L42.4381 18.5631L34.6941 25.9231L36.0719 27.3728ZM43.8143 18.5617L36.0703 11.2337L34.6957 12.6863L42.4397 20.0143L43.8143 18.5617Z" fill="#757575"/>
</svg>
